<svg width="28" height="31" viewBox="0 0 28 31" fill="none" xmlns="http://www.w3.org/2000/svg">
<path d="M5.20865 25.1909C4.74479 24.8853 4.34588 24.4955 3.87893 23.9438C3.63656 23.6506 3.39638 23.3556 3.15841 23.0589C2.44252 22.1801 1.99104 21.7751 1.52409 21.6085C1.13801 21.4715 0.822795 21.1885 0.6478 20.8217C0.472806 20.455 0.452363 20.0346 0.590968 19.6529C0.729573 19.2713 1.01587 18.9597 1.38688 18.7868C1.75789 18.6138 2.18323 18.5936 2.56931 18.7306C3.73204 19.1432 4.51905 19.8539 5.57973 21.1576C5.43439 20.9788 6.10544 21.8102 6.24923 21.9814C6.54301 22.3283 6.75947 22.5392 6.92955 22.6508C7.24498 22.8602 7.83716 22.9504 8.70767 22.8648C8.74323 22.2809 8.85301 21.7139 9.02 21.1912C4.43092 20.0816 1.83333 17.1564 1.83333 11.4159C1.83333 9.5207 2.40542 7.81505 3.46919 6.38451C3.13212 5.01816 3.18315 3.36601 3.93614 1.506C4.02159 1.29559 4.15333 1.10662 4.32181 0.952774C4.49029 0.798926 4.69129 0.684057 4.91024 0.616492C5.03548 0.579811 5.1066 0.562999 5.23184 0.544659C6.47343 0.356671 8.2268 0.80448 10.5121 2.21974C11.8739 1.90502 13.2681 1.74706 14.6667 1.749C16.0768 1.749 17.4776 1.90795 18.8166 2.21974C21.1003 0.793781 22.8568 0.345973 24.1077 0.544659C24.2391 0.564528 24.3504 0.59051 24.4447 0.621077C24.6594 0.69104 24.8559 0.806671 25.0205 0.959826C25.185 1.11298 25.3136 1.29994 25.3972 1.50752C26.1502 3.36601 26.2012 5.01816 25.8641 6.38298C26.9326 7.81352 27.5 9.50847 27.5 11.4159C27.5 17.1579 24.9117 20.074 20.3226 21.1851C20.5159 21.8194 20.6164 22.5285 20.6164 23.2942C20.6165 24.6779 20.6103 26.0616 20.5978 27.4453C20.9451 27.5201 21.2556 27.711 21.4772 27.9856C21.6988 28.2603 21.8179 28.602 21.8144 28.9533C21.811 29.3046 21.6852 29.644 21.4583 29.9144C21.2313 30.1847 20.9171 30.3696 20.5685 30.4378C18.8074 30.7863 17.5024 29.6247 17.5024 28.107L17.5055 27.4254L17.5132 26.3479C17.5209 25.2658 17.524 24.303 17.524 23.2942C17.524 22.229 17.2411 21.5336 16.8669 21.2157C15.8449 20.3445 16.3628 18.6863 17.7018 18.538C22.2894 18.0291 24.4076 16.273 24.4076 11.4159C24.4076 9.95628 23.9252 8.75041 22.996 7.74169C22.8002 7.52962 22.6688 7.26733 22.6168 6.98486C22.5649 6.7024 22.5945 6.41118 22.7022 6.14456C22.9589 5.51182 23.0686 4.68192 22.8506 3.67779L22.8352 3.68238C22.076 3.89482 21.1189 4.35485 19.9624 5.13279C19.7759 5.25789 19.5639 5.34118 19.3415 5.37682C19.119 5.41246 18.8913 5.39959 18.6744 5.33911C17.3692 4.98192 16.0209 4.80246 14.6667 4.80572C13.2906 4.80572 11.9268 4.98759 10.659 5.34064C10.4428 5.40064 10.2161 5.4134 9.99445 5.37803C9.77283 5.34267 9.56167 5.26002 9.37562 5.13584C8.21289 4.36097 7.25116 3.90246 6.48734 3.68849C6.26469 4.68651 6.37447 5.51335 6.62959 6.14456C6.73753 6.41104 6.76736 6.70217 6.71568 6.98464C6.664 7.2671 6.53289 7.52946 6.33736 7.74169C5.41429 8.74124 4.9257 9.97004 4.9257 11.4159C4.9257 16.2638 7.04552 18.0306 11.6083 18.538C12.9458 18.6863 13.4653 20.3369 12.4494 21.2096C12.1526 21.4663 11.7861 22.3283 11.7861 23.2942V28.1086C11.7861 29.6155 10.4951 30.745 8.7556 30.4439C8.40271 30.3827 8.08229 30.2022 7.8491 29.9333C7.61591 29.6644 7.48443 29.3238 7.47712 28.9697C7.46982 28.6156 7.58715 28.27 7.80906 27.992C8.03096 27.7139 8.34368 27.5207 8.69375 27.4453V25.9322C7.28672 26.0254 6.12399 25.7977 5.20865 25.1909Z" fill="#F5F5F5"/>
</svg>
