<svg width="30" height="31" viewBox="0 0 30 31" fill="none" xmlns="http://www.w3.org/2000/svg">
<path d="M15 11C13.8065 11 12.6619 11.4741 11.818 12.318C10.9741 13.1619 10.5 14.3065 10.5 15.5C10.5 16.6935 10.9741 17.8381 11.818 18.682C12.6619 19.5259 13.8065 20 15 20C16.1935 20 17.3381 19.5259 18.182 18.682C19.0259 17.8381 19.5 16.6935 19.5 15.5C19.5 14.3065 19.0259 13.1619 18.182 12.318C17.3381 11.4741 16.1935 11 15 11ZM15 8C16.9891 8 18.8968 8.79018 20.3033 10.1967C21.7098 11.6032 22.5 13.5109 22.5 15.5C22.5 17.4891 21.7098 19.3968 20.3033 20.8033C18.8968 22.2098 16.9891 23 15 23C13.0109 23 11.1032 22.2098 9.6967 20.8033C8.29018 19.3968 7.5 17.4891 7.5 15.5C7.5 13.5109 8.29018 11.6032 9.6967 10.1967C11.1032 8.79018 13.0109 8 15 8ZM24.75 7.625C24.75 8.12228 24.5525 8.59919 24.2008 8.95083C23.8492 9.30246 23.3723 9.5 22.875 9.5C22.3777 9.5 21.9008 9.30246 21.5492 8.95083C21.1975 8.59919 21 8.12228 21 7.625C21 7.12772 21.1975 6.65081 21.5492 6.29917C21.9008 5.94754 22.3777 5.75 22.875 5.75C23.3723 5.75 23.8492 5.94754 24.2008 6.29917C24.5525 6.65081 24.75 7.12772 24.75 7.625ZM15 3.5C11.289 3.5 10.683 3.5105 8.9565 3.587C7.7805 3.6425 6.9915 3.8 6.2595 4.085C5.6085 4.337 5.139 4.6385 4.6395 5.1395C4.17001 5.5931 3.80903 6.14688 3.5835 6.7595C3.2985 7.4945 3.141 8.282 3.087 9.4565C3.009 11.1125 3 11.6915 3 15.5C3 19.211 3.0105 19.817 3.087 21.5435C3.1425 22.718 3.3 23.5085 3.5835 24.239C3.8385 24.8915 4.1385 25.361 4.6365 25.859C5.142 26.363 5.6115 26.6645 6.2565 26.9135C6.9975 27.2 7.7865 27.359 8.9565 27.413C10.6125 27.491 11.1915 27.5 15 27.5C18.711 27.5 19.317 27.4895 21.0435 27.413C22.2165 27.3575 23.007 27.2 23.739 26.9165C24.3885 26.663 24.861 26.3615 25.359 25.8635C25.8645 25.358 26.166 24.8885 26.415 24.2435C26.7 23.504 26.859 22.7135 26.913 21.5435C26.991 19.8875 27 19.3085 27 15.5C27 11.789 26.9895 11.183 26.913 9.4565C26.8575 8.2835 26.7 7.4915 26.415 6.7595C26.1889 6.1475 25.8286 5.59394 25.3605 5.1395C24.9071 4.66977 24.3533 4.30875 23.7405 4.0835C23.0055 3.7985 22.2165 3.641 21.0435 3.587C19.3875 3.509 18.8085 3.5 15 3.5ZM15 0.5C19.0755 0.5 19.584 0.515 21.183 0.59C22.7805 0.665 23.868 0.9155 24.825 1.2875C25.815 1.6685 26.649 2.1845 27.483 3.017C28.2457 3.76684 28.8359 4.67388 29.2125 5.675C29.583 6.6305 29.835 7.7195 29.91 9.317C29.9805 10.916 30 11.4245 30 15.5C30 19.5755 29.985 20.084 29.91 21.683C29.835 23.2805 29.583 24.368 29.2125 25.325C28.837 26.3267 28.2467 27.2339 27.483 27.983C26.7329 28.7455 25.826 29.3356 24.825 29.7125C23.8695 30.083 22.7805 30.335 21.183 30.41C19.584 30.4805 19.0755 30.5 15 30.5C10.9245 30.5 10.416 30.485 8.817 30.41C7.2195 30.335 6.132 30.083 5.175 29.7125C4.17349 29.3367 3.26629 28.7464 2.517 27.983C1.75411 27.2333 1.1639 26.3262 0.7875 25.325C0.4155 24.3695 0.165 23.2805 0.0899999 21.683C0.0194999 20.084 0 19.5755 0 15.5C0 11.4245 0.0149999 10.916 0.0899999 9.317C0.165 7.718 0.4155 6.632 0.7875 5.675C1.16285 4.67327 1.75321 3.76598 2.517 3.017C3.26651 2.25385 4.17364 1.66359 5.175 1.2875C6.132 0.9155 7.218 0.665 8.817 0.59C10.416 0.5195 10.9245 0.5 15 0.5Z" fill="#F5F5F5"/>
</svg>
