<svg width="30" height="31" viewBox="0 0 30 31" fill="none" xmlns="http://www.w3.org/2000/svg">
<path d="M1.66667 0.5H28.3333C28.7754 0.5 29.1993 0.675595 29.5118 0.988155C29.8244 1.30072 30 1.72464 30 2.16667V28.8333C30 29.2754 29.8244 29.6993 29.5118 30.0118C29.1993 30.3244 28.7754 30.5 28.3333 30.5H1.66667C1.22464 30.5 0.800716 30.3244 0.488155 30.0118C0.175595 29.6993 0 29.2754 0 28.8333V2.16667C0 1.72464 0.175595 1.30072 0.488155 0.988155C0.800716 0.675595 1.22464 0.5 1.66667 0.5ZM3.33333 3.83333V27.1667H26.6667V3.83333H3.33333ZM7.5 10.5C6.83696 10.5 6.20107 10.2366 5.73223 9.76777C5.26339 9.29893 5 8.66304 5 8C5 7.33696 5.26339 6.70107 5.73223 6.23223C6.20107 5.76339 6.83696 5.5 7.5 5.5C8.16304 5.5 8.79893 5.76339 9.26777 6.23223C9.73661 6.70107 10 7.33696 10 8C10 8.66304 9.73661 9.29893 9.26777 9.76777C8.79893 10.2366 8.16304 10.5 7.5 10.5ZM5.83333 12.1667H9.16667V24.6667H5.83333V12.1667ZM15 12.8833C15.9733 11.9417 17.11 11.3333 18.3333 11.3333C21.785 11.3333 24.1667 14.1317 24.1667 17.5833V24.6667H20.8333V17.5833C20.8333 16.8098 20.526 16.0679 19.9791 15.5209C19.4321 14.974 18.6902 14.6667 17.9167 14.6667C17.1431 14.6667 16.4013 14.974 15.8543 15.5209C15.3073 16.0679 15 16.8098 15 17.5833V24.6667H11.6667V12.1667H15V12.8833Z" fill="#F5F5F5"/>
</svg>
